<svg xmlns="http://www.w3.org/2000/svg" width="16" height="16" viewBox="0 0 16 16">
  <defs>
    <style>
      .cls-1 {
        fill: #fff;
        fill-rule: evenodd;
      }
    </style>
  </defs>
  <path id="Icon" class="cls-1" d="M1043.01,1440.49a6.51,6.51,0,1,1-6.51-6.49A6.5,6.5,0,0,1,1043.01,1440.49Zm-10.99,4.12,0.34,0.34a0.477,0.477,0,0,1,0,.68l-1.7,1.7a0.5,0.5,0,0,1-.68,0l-0.34-.34a0.477,0.477,0,0,1,0-.68l1.7-1.7A0.5,0.5,0,0,1,1032.02,1444.61Zm-1.82,1.01,1.14,1.15a0.52,0.52,0,0,1,0,.76l-2.28,2.28a0.549,0.549,0,0,1-.77,0l-1.14-1.14a0.537,0.537,0,0,1,0-.76l2.29-2.29A0.537,0.537,0,0,1,1030.2,1445.62Zm10.3-5.13a4,4,0,1,1-4-3.99A4,4,0,0,1,1040.5,1440.49Z" transform="translate(-1027 -1434)"/>
</svg>
